<?xml version="1.0" encoding="UTF-8"?>
<svg xmlns="http://www.w3.org/2000/svg" viewBox="0 0 241.4 64.0">
  <style>
    .layer-1 { fill: #BDA06A; }
    .layer-2 { fill: #9B7A3C; }
    .layer-3 { fill: #7A5C1F; }
    .wordmark { fill: #5A4520; }
    @media (prefers-color-scheme: dark) {
      .wordmark { fill: #BDA06A; }
    }
  </style>
  <!-- Mark -->
  <g transform="scale(0.5000)">
    <rect class="layer-1" x="17.92" y="18.6" width="92.16" height="24.5" rx="4"/>
    <rect class="layer-2" x="17.92" y="51.7" width="92.16" height="24.5" rx="4"/>
    <rect class="layer-3" x="17.92" y="84.9" width="92.16" height="24.5" rx="4"/>
  </g>
  <!-- Wordmark -->
  <g class="wordmark">
    <path d="M930 573Q930 773 847.5 883.0Q765 993 616 993Q468 993 385.5 883.0Q303 773 303 573Q303 374 385.5 264.0Q468 154 616 154Q765 154 847.5 264.0Q930 374 930 573ZM1114 139Q1114 -147 987.0 -286.5Q860 -426 598 -426Q501 -426 415.0 -411.5Q329 -397 248 -367V-188Q329 -232 408.0 -253.0Q487 -274 569 -274Q750 -274 840.0 -179.5Q930 -85 930 106V197Q873 98 784.0 49.0Q695 0 571 0Q365 0 239.0 157.0Q113 314 113 573Q113 833 239.0 990.0Q365 1147 571 1147Q695 1147 784.0 1098.0Q873 1049 930 950V1120H1114Z" transform="translate(74.0,39.7) scale(0.013672,-0.013672)"/>
    <path d="M842 948Q811 966 774.5 974.5Q738 983 694 983Q538 983 454.5 881.5Q371 780 371 590V0H186V1120H371V946Q429 1048 522.0 1097.5Q615 1147 748 1147Q767 1147 790.0 1144.5Q813 1142 841 1137Z" transform="translate(91.8,39.7) scale(0.013672,-0.013672)"/>
    <path d="M627 991Q479 991 393.0 875.5Q307 760 307 559Q307 358 392.5 242.5Q478 127 627 127Q774 127 860.0 243.0Q946 359 946 559Q946 758 860.0 874.5Q774 991 627 991ZM627 1147Q867 1147 1004.0 991.0Q1141 835 1141 559Q1141 284 1004.0 127.5Q867 -29 627 -29Q386 -29 249.5 127.5Q113 284 113 559Q113 835 249.5 991.0Q386 1147 627 1147Z" transform="translate(103.3,39.7) scale(0.013672,-0.013672)"/>
    <path d="M174 442V1120H358V449Q358 290 420.0 210.5Q482 131 606 131Q755 131 841.5 226.0Q928 321 928 485V1120H1112V0H928V172Q861 70 772.5 20.5Q684 -29 567 -29Q374 -29 274.0 91.0Q174 211 174 442ZM637 1147Z" transform="translate(120.4,39.7) scale(0.013672,-0.013672)"/>
    <path d="M1124 676V0H940V670Q940 829 878.0 908.0Q816 987 692 987Q543 987 457.0 892.0Q371 797 371 633V0H186V1120H371V946Q437 1047 526.5 1097.0Q616 1147 733 1147Q926 1147 1025.0 1027.5Q1124 908 1124 676Z" transform="translate(138.2,39.7) scale(0.013672,-0.013672)"/>
    <path d="M930 950V1556H1114V0H930V168Q872 68 783.5 19.5Q695 -29 571 -29Q368 -29 240.5 133.0Q113 295 113 559Q113 823 240.5 985.0Q368 1147 571 1147Q695 1147 783.5 1098.5Q872 1050 930 950ZM303 559Q303 356 386.5 240.5Q470 125 616 125Q762 125 846.0 240.5Q930 356 930 559Q930 762 846.0 877.5Q762 993 616 993Q470 993 386.5 877.5Q303 762 303 559Z" transform="translate(155.9,39.7) scale(0.013672,-0.013672)"/>
    <path d="M86 1120H270L500 246L729 1120H946L1176 246L1405 1120H1589L1296 0H1079L838 918L596 0H379Z" transform="translate(173.7,39.7) scale(0.013672,-0.013672)"/>
    <path d="M627 991Q479 991 393.0 875.5Q307 760 307 559Q307 358 392.5 242.5Q478 127 627 127Q774 127 860.0 243.0Q946 359 946 559Q946 758 860.0 874.5Q774 991 627 991ZM627 1147Q867 1147 1004.0 991.0Q1141 835 1141 559Q1141 284 1004.0 127.5Q867 -29 627 -29Q386 -29 249.5 127.5Q113 284 113 559Q113 835 249.5 991.0Q386 1147 627 1147Z" transform="translate(196.6,39.7) scale(0.013672,-0.013672)"/>
    <path d="M842 948Q811 966 774.5 974.5Q738 983 694 983Q538 983 454.5 881.5Q371 780 371 590V0H186V1120H371V946Q429 1048 522.0 1097.5Q615 1147 748 1147Q767 1147 790.0 1144.5Q813 1142 841 1137Z" transform="translate(213.7,39.7) scale(0.013672,-0.013672)"/>
    <path d="M186 1556H371V637L920 1120H1155L561 596L1180 0H940L371 547V0H186Z" transform="translate(225.2,39.7) scale(0.013672,-0.013672)"/>
  </g>
</svg>
